<svg width="525" height="352" viewBox="0 0 525 352" fill="none" xmlns="http://www.w3.org/2000/svg">
<g clip-path="url(#clip0_21_2)">
<path d="M64.7784 199.017C86.058 199.017 103.309 181.817 103.309 160.598C103.309 139.38 86.058 122.179 64.7784 122.179C43.4988 122.179 26.2482 139.38 26.2482 160.598C26.2482 181.817 43.4988 199.017 64.7784 199.017Z" fill="#FF6884"/>
<path d="M81.4752 350.907H7.27954L24.0475 82.5642L34.9901 19.3204L37.0757 8.6502C39.5451 -3.98396 58.1758 -2.29674 58.323 10.5743C58.6654 40.4987 46.0895 68.6609 46.7033 82.5642C49.4715 145.507 55.2569 234.757 66.407 261.065C74.688 280.612 79.116 343.554 81.4752 350.907Z" fill="#343434"/>
<path d="M515.384 350.907H446.788L439.58 82.5642L425.76 19.3322C425.601 6.4306 444.25 4.34109 446.966 16.9561C446.966 16.9561 460.582 45.0967 462.236 82.5642C465.004 145.507 489.166 234.757 500.316 261.065C508.597 280.612 513.025 343.554 515.384 350.907Z" fill="#343434"/>
<path d="M104.048 175.066C119.566 176.31 155.619 195.162 155.619 195.162C183.635 223.131 225.48 224.789 253.426 225.897C294.978 227.544 326.434 214.648 349.455 205.21C349.455 205.21 403.274 192.851 403.99 192.798C404.848 192.734 405.66 194.843 405.769 195.162C407.545 200.398 388.016 219.794 365.46 226.488C362.387 227.4 355.416 229.217 348.27 234.763C343.833 238.206 341.227 241.615 340.564 242.447C334.512 250.043 302.348 278.977 265.875 280.275C234.682 281.385 209.746 261.946 181.701 240.083C170.578 231.411 171.911 230.771 157.99 219.986C126.418 195.529 110.632 183.3 103.455 179.203C102.461 178.635 98.9775 176.694 99.3058 175.657C99.6054 174.709 102.935 174.976 104.048 175.066Z" fill="#66E7A9"/>
<path d="M99.3052 176.248C99.1984 176.248 99.0905 176.219 98.9932 176.159L21.8116 128.389C21.5335 128.217 21.4478 127.852 21.6206 127.575C21.7931 127.297 22.1589 127.211 22.4368 127.384L99.6184 175.155C99.8965 175.327 99.9822 175.691 99.8094 175.968C99.6971 176.148 99.5035 176.248 99.3052 176.248Z" fill="#3F3D56"/>
<path d="M403.991 193.389C403.777 193.389 403.571 193.273 403.465 193.071C403.313 192.782 403.426 192.425 403.716 192.273L470.487 157.502C470.778 157.351 471.135 157.463 471.286 157.752C471.438 158.041 471.326 158.399 471.035 158.55L404.265 193.322C404.177 193.367 404.083 193.389 403.991 193.389Z" fill="#3F3D56"/>
<path d="M0 351.297C0 351.687 0.314187 352 0.705434 352H95.128C95.5192 352 95.8334 351.687 95.8334 351.297C95.8334 350.907 95.5192 350.593 95.128 350.593H0.705434C0.314187 350.593 0 350.907 0 351.297Z" fill="#3F3D56"/>
<path d="M422.646 351.297C422.646 351.687 422.96 352 423.352 352H524.295C524.686 352 525 351.687 525 351.297C525 350.907 524.686 350.593 524.295 350.593H423.352C422.96 350.593 422.646 350.907 422.646 351.297Z" fill="#3F3D56"/>
<path d="M234.145 351.297C234.145 351.687 234.459 352 234.85 352H335.793C336.184 352 336.499 351.687 336.499 351.297C336.499 350.907 336.184 350.593 335.793 350.593H234.85C234.459 350.593 234.145 350.907 234.145 351.297Z" fill="#3F3D56"/>
<path d="M165.161 185.929C165.161 185.929 161.377 191.857 164.489 195.348C167.602 198.839 186.418 212.747 186.418 212.747C186.418 212.747 198.272 219.994 197.111 210.013C195.95 200.032 179.052 189.35 179.052 189.35L165.161 185.929Z" fill="#E6E6E6"/>
<path d="M195.92 170.239C193.896 170.044 192.007 172.457 191.7 175.63C191.56 176.895 191.726 178.176 192.184 179.365L191.881 182.964L191.819 182.97L187.604 199.498C186.624 203.341 187.424 207.458 189.906 210.557C191.382 212.4 193.12 213.525 194.702 211.863C197.327 209.105 197.244 195.626 196.967 187.919L197.837 179.908C198.515 178.829 198.924 177.603 199.029 176.334C199.336 173.162 197.944 170.434 195.92 170.239Z" fill="#FFB6B6"/>
<path d="M201.946 169.524L201.923 169.275C201.907 169.077 201.818 168.899 201.679 168.778C201.541 168.656 201.363 168.612 201.191 168.644L192.851 170.468C192.68 170.506 192.535 170.621 192.441 170.786C192.352 170.959 192.325 171.163 192.369 171.354L192.447 171.686L193.001 174.065L195.142 183.248C195.219 183.58 195.491 183.797 195.779 183.771C195.807 183.771 195.829 183.771 195.857 183.765L202.45 182.273C202.517 182.26 202.578 182.234 202.633 182.196C202.844 182.062 202.971 181.794 202.949 181.507L201.946 169.524Z" fill="#66E7A9"/>
<path d="M201.784 168.139C201.665 168.142 201.505 168.148 201.314 168.158C201.353 168.042 201.359 167.911 201.323 167.783L201.071 166.893C201.005 166.661 200.819 166.504 200.608 166.503C199.349 166.496 195.035 166.608 192.511 168.403C192.353 168.515 192.266 168.723 192.285 168.935L192.369 169.912C192.379 170.033 192.422 170.14 192.486 170.225C192.271 170.327 192.057 170.432 191.845 170.544C191.713 170.615 191.63 170.769 191.631 170.937L191.636 171.358C191.639 171.625 191.852 171.823 192.08 171.772L202.041 169.507C202.267 169.455 202.399 169.181 202.315 168.933L202.139 168.412C202.083 168.244 201.941 168.135 201.784 168.139Z" fill="#3F3D56"/>
<path d="M176.01 181.331L173.451 189.622L162.578 187.071L161.939 173.678L176.01 181.331Z" fill="#FFB6B6"/>
<path d="M160.659 185.158L174.731 186.433L180.369 191.925L188.162 198.551C188.162 198.551 192.64 204.928 191.36 213.219L199.036 219.597L179.847 239.212L155.543 218.959C155.543 218.959 147.228 194.086 160.659 185.158Z" fill="#E6E6E6"/>
<path d="M193.919 220.235L199.504 219.597L208.569 220.235L238.351 202.55C242.097 200.326 246.939 201.488 249.259 205.169L273.229 243.194L265.554 248.296L241.889 224.061L212.377 248.296C212.377 248.296 182.406 263.929 179.847 239.212L193.919 220.235Z" fill="#2F2E41"/>
<path d="M212.467 242.556L260.437 238.092L305.849 249.571L308.407 240.005L246.366 217.684L223.98 223.423L212.467 242.556Z" fill="#2F2E41"/>
<path d="M158.67 190.344C158.67 190.344 154.269 195.833 156.987 199.637C159.705 203.441 176.913 219.285 176.913 219.285C176.913 219.285 187.917 227.761 187.839 217.713C187.761 207.665 172.112 195.234 172.112 195.234L158.67 190.344Z" fill="#E6E6E6"/>
<path d="M172.28 181.732C178.987 181.732 184.424 176.31 184.424 169.623C184.424 162.935 178.987 157.514 172.28 157.514C165.573 157.514 160.136 162.935 160.136 169.623C160.136 176.31 165.573 181.732 172.28 181.732Z" fill="#FFB6B6"/>
<path d="M183.475 167.542C180.361 167.534 180.184 167.555 179.68 167.542C175.817 167.44 174.807 165.925 172.849 166.028C169.355 166.212 173.967 183.683 175.885 191.759C177.766 199.68 171.409 206.778 170.952 207.273C164.498 214.272 153.163 215.551 151.218 212.571C149.644 210.159 155.223 206.491 153.875 201.219C152.556 196.065 146.468 196.614 144.767 191.759C142.985 186.675 148.973 184.11 152.736 171.704C154.897 164.579 154.515 163.251 156.531 158.838C161.921 147.043 188.338 152.065 185.372 163.001C184.799 165.116 186.326 167.548 183.475 167.542Z" fill="#2F2E41"/>
<path d="M100.195 175.361C115.713 176.605 151.493 202.518 151.493 202.518C179.509 230.487 221.354 232.145 249.3 233.253C290.852 234.9 322.307 222.004 345.329 212.566C345.329 212.566 393.027 220.301 398.678 201.927C398.732 201.751 399.147 200.206 399.864 200.153C400.722 200.09 401.534 202.198 401.642 202.518C403.418 207.753 383.89 227.15 361.334 233.844C358.261 234.756 351.29 236.572 344.143 242.119C339.707 245.562 337.1 248.97 336.437 249.803C330.385 257.398 298.221 286.333 261.748 287.631C230.555 288.741 205.62 269.302 177.575 247.438C166.451 238.767 167.785 238.127 153.864 227.342C122.291 202.884 106.505 190.656 99.3287 186.559C98.334 185.991 96.9028 175.808 97.2311 174.77C97.5308 173.823 99.0821 175.272 100.195 175.361Z" fill="#66E7A9"/>
<path d="M225.024 238.577C225.925 236.759 224.334 234.141 221.469 232.729C220.332 232.149 219.072 231.849 217.795 231.854L214.528 230.294L214.544 230.234L200.545 220.437C197.289 218.16 193.145 217.444 189.359 218.657C187.107 219.378 185.435 220.6 186.432 222.664C188.086 226.09 200.752 230.798 208.076 233.276L215.278 236.931C216.05 237.946 217.054 238.762 218.206 239.311C221.071 240.723 224.123 240.394 225.024 238.577Z" fill="#FFB6B6"/>
<path d="M303.632 147.823C303.632 147.823 299.027 138.639 299.948 130.372L284.62 138.295L285.21 153.334L303.632 147.823Z" fill="#A0616A"/>
<path d="M290.093 142.537C297.729 142.537 303.92 136.364 303.92 128.749C303.92 121.135 297.729 114.962 290.093 114.962C282.456 114.962 276.265 121.135 276.265 128.749C276.265 136.364 282.456 142.537 290.093 142.537Z" fill="#A0616A"/>
<path d="M308.244 345.265L299.807 345.264L295.793 312.813L308.246 312.814L308.244 345.265Z" fill="#A0616A"/>
<path d="M279.336 345.074C279.073 345.516 278.935 346.94 278.935 347.453C278.935 349.03 280.217 350.308 281.798 350.308H307.929C309.008 350.308 309.882 349.436 309.882 348.36V347.275C309.882 347.275 311.175 344.015 308.514 339.997C308.514 339.997 305.206 343.143 300.264 338.215L298.806 335.582L288.256 343.276L282.408 343.994C281.128 344.151 279.994 343.969 279.336 345.074Z" fill="#2F2E41"/>
<path d="M283.368 147.823L303.632 145.068L319.291 152.415L320.212 209.36C320.212 209.36 281.692 213.953 275.622 207.983C269.551 202.012 274.157 154.252 274.157 154.252L283.368 147.823Z" fill="#E6E6E6"/>
<path d="M293.551 132.262H297.268C297.268 132.262 300.494 128.303 300.06 130.715C299.626 133.127 301.361 135.723 301.361 135.723L303.965 134.857C303.965 134.857 309.172 113.027 293.551 111.828C277.931 110.629 274.459 122.743 274.459 122.743C274.459 122.743 275.327 128.8 277.063 127.07C278.798 125.339 288.344 124.474 288.344 124.474L293.551 132.262Z" fill="#2F2E41"/>
<path d="M273.986 281.014L266.269 284.417L249.434 256.357L260.823 251.335L273.986 281.014Z" fill="#A0616A"/>
<path d="M247.471 292.5C247.41 293.009 247.861 294.367 248.069 294.837C248.708 296.279 250.4 296.931 251.846 296.293L275.743 285.754C276.73 285.318 277.176 284.168 276.74 283.184L276.3 282.192C276.3 282.192 276.159 278.689 272.095 276.087C272.095 276.087 270.347 280.299 263.827 277.786L261.426 275.966L254.899 287.257L249.842 290.272C248.735 290.932 247.624 291.224 247.471 292.5Z" fill="#2F2E41"/>
<path d="M317.449 203.849L320.212 212.181V240.819L311.186 266.764L311.922 327.256H295.727L293.899 265.553L295.342 235.077L284.289 230.485L255.255 232.272L268.833 265.553L253.892 275.49C253.892 275.49 231.546 224.71 234.889 219.791C238.233 214.871 277.38 206.193 277.38 206.193C277.38 206.193 317.449 204.768 317.449 203.849Z" fill="#2F2E41"/>
<path d="M325.739 170.785L330.192 178.057C330.192 178.057 336.488 202.73 330.192 202.831C323.897 202.931 311.186 190.257 311.186 190.257L312.844 183.643L317.449 185.48L316.528 170.785H325.739Z" fill="#A0616A"/>
<path d="M311.922 152.3C311.922 152.3 326.66 149.711 328.042 159.329C329.424 168.948 330.192 178.057 330.192 178.057L314.225 179.376L311.922 152.3Z" fill="#E6E6E6"/>
<path d="M315.121 189.448C316.454 187.583 314.501 183.917 310.759 181.26C307.018 178.603 302.905 177.961 301.573 179.826C300.24 181.692 302.193 185.358 305.935 188.015C309.676 190.672 313.789 191.313 315.121 189.448Z" fill="#A0616A"/>
<path d="M292.06 167.454L292.027 167.076C292.001 166.776 291.867 166.505 291.656 166.321C291.446 166.137 291.176 166.069 290.915 166.118L278.25 168.887C277.989 168.946 277.77 169.12 277.627 169.372C277.492 169.633 277.45 169.943 277.518 170.234L277.636 170.737L278.478 174.35L281.728 188.296C281.846 188.799 282.259 189.128 282.696 189.09C282.739 189.09 282.772 189.09 282.814 189.08L292.827 186.814C292.928 186.794 293.02 186.756 293.104 186.698C293.424 186.494 293.618 186.088 293.584 185.652L292.06 167.454Z" fill="#66E7A9"/>
<path d="M291.815 165.352C291.634 165.357 291.392 165.365 291.102 165.38C291.16 165.204 291.17 165.005 291.115 164.81L290.732 163.459C290.633 163.108 290.35 162.869 290.029 162.867C288.117 162.856 281.566 163.027 277.733 165.752C277.493 165.922 277.362 166.238 277.39 166.561L277.518 168.045C277.533 168.228 277.599 168.391 277.695 168.519C277.368 168.674 277.044 168.834 276.722 169.004C276.521 169.111 276.395 169.346 276.398 169.601L276.405 170.24C276.409 170.645 276.733 170.946 277.078 170.868L292.205 167.429C292.549 167.35 292.748 166.933 292.621 166.557L292.354 165.766C292.268 165.511 292.053 165.346 291.815 165.352Z" fill="#3F3D56"/>
<path d="M263.51 171.376L259.056 178.648C259.056 178.648 252.761 203.321 259.056 203.422C265.352 203.522 278.063 190.848 278.063 190.848L276.405 184.234L271.8 186.071L272.721 171.376H263.51Z" fill="#A0616A"/>
<path d="M277.326 152.891C277.326 152.891 262.588 150.302 261.207 159.92C259.825 169.539 259.056 178.648 259.056 178.648L275.024 179.967L277.326 152.891Z" fill="#E6E6E6"/>
<path d="M283.314 188.606C287.055 185.949 289.008 182.283 287.676 180.417C286.344 178.552 282.231 179.194 278.489 181.851C274.748 184.508 272.795 188.174 274.127 190.039C275.46 191.904 279.573 191.263 283.314 188.606Z" fill="#A0616A"/>
</g>
<defs>
<clipPath id="clip0_21_2">
<rect width="525" height="352" fill="white"/>
</clipPath>
</defs>
</svg>
